<?xml version="1.0" standalone="no"?>
<!DOCTYPE svg PUBLIC "-//W3C//DTD SVG 20010904//EN"
 "http://www.w3.org/TR/2001/REC-SVG-20010904/DTD/svg10.dtd">
<svg version="1.0" xmlns="http://www.w3.org/2000/svg"
 width="256.000000pt" height="256.000000pt" viewBox="0 0 256.000000 256.000000"
 preserveAspectRatio="xMidYMid meet">

<g transform="translate(0.000000,256.000000) scale(0.100000,-0.100000)"
fill="#000000" stroke="none">
<path d="M917 1940 c-77 -13 -150 -55 -210 -120 -74 -79 -100 -147 -101 -260
0 -76 3 -93 33 -155 29 -64 59 -96 337 -375 l304 -305 304 305 c326 328 346
355 366 473 19 121 -29 259 -122 342 -147 132 -349 135 -505 8 l-43 -34 -52
39 c-71 53 -103 68 -173 81 -65 12 -69 12 -138 1z m38 -275 c21 -20 25 -34 25
-86 l0 -62 120 -122 c92 -93 120 -127 120 -147 0 -27 -31 -58 -59 -58 -25 0
-249 230 -276 284 -35 70 -35 157 0 191 13 14 29 25 35 25 6 0 22 -11 35 -25z"/>
<path d="M390 1770 c-65 -12 -96 -26 -122 -55 -37 -43 -46 -83 -47 -210 -1
-135 -10 -163 -59 -184 -30 -14 -32 -18 -32 -67 0 -49 1 -52 30 -57 47 -10 60
-48 60 -179 0 -136 12 -183 56 -225 33 -30 100 -53 159 -53 23 0 25 3 25 54 0
52 -1 55 -29 61 -50 11 -56 27 -61 174 -5 119 -9 141 -28 173 -13 20 -33 40
-44 44 -21 6 -21 7 5 26 49 36 60 72 66 215 7 143 18 173 68 173 22 0 23 4 23
60 0 42 -4 60 -12 59 -7 -1 -33 -5 -58 -9z"/>
<path d="M2100 1720 c0 -56 1 -60 23 -60 50 0 61 -30 68 -173 6 -143 17 -179
66 -215 26 -19 26 -20 5 -26 -11 -4 -31 -24 -44 -44 -19 -32 -23 -54 -28 -173
-5 -147 -11 -163 -61 -174 -28 -6 -29 -9 -29 -62 l0 -56 58 7 c100 12 154 53
172 132 5 21 10 89 10 149 0 126 10 156 58 170 31 9 32 11 32 60 0 48 -2 52
-32 66 -48 21 -58 49 -58 174 0 61 -5 127 -10 147 -21 76 -81 118 -187 132
l-43 6 0 -60z"/>
</g>
</svg>
